# xmcd CD database file
#
# Track frame offsets:
#	150
#	21859
#	52813
#	79273
#	108509
#	135950
#	158829
#	185650
#	214149
#	238538
#
# Disc length: 3437 seconds
#
# Revision: 0
# Processed by: cddbd v1.5.2PL0 Copyright (c) Steve Scherf et al.
# Submitted via: CDex 1.70beta2
#
DISCID=7d0d6b0a
DTITLE=Son Tradicion - De Cuba Senores
DYEAR=2007
DGENRE=Salsa
TTITLE0=La Raspita
TTITLE1=Homenaje a polo Montanez
TTITLE2=Testamento de un Sonero
TTITLE3=Chan Chan
TTITLE4=Esclavo y Verdugo
TTITLE5=Guantanamera
TTITLE6=Mas
TTITLE7=Idillio
TTITLE8=La lengua
TTITLE9=Pintate los labios
EXTD=YEAR: 2007
EXTT0=
EXTT1=
EXTT2=
EXTT3=
EXTT4=
EXTT5=
EXTT6=
EXTT7=
EXTT8=
EXTT9=
PLAYORDER=
